<?xml version="1.0" encoding="UTF-8"?>
<svg width="24px" height="24px" enable-background="new 0 0 612.002 612.002" version="1.1" viewBox="0 0 612.002 612.002" xml:space="preserve" xmlns="http://www.w3.org/2000/svg">
		<path d="m600.44 11.448c-7.761-7.761-18.441-11.902-29.391-11.409-38.048 1.715-74.86 6.675-105.86 11.3-72.585 10.851-143.33 26.919-210.27 47.76-28.343 8.826-65.558 21.274-102.08 39.372-25.804 12.805-55.251 28.431-78.099 51.929-0.162 0.167-0.324 0.336-0.484 0.505-59.276 63.175-85.318 151.93-69.668 237.43 8.499 46.418 29.141 88.873 58.345 124.04l396.04-359.46-359.43 396.01c39.094 32.407 87.098 54.265 139.2 60.903 11.349 1.442 22.934 2.176 34.433 2.176h5e-3c44.735 0 89.077-10.965 128.22-31.704 26.723-14.156 48.462-30.262 64.625-47.888 24.852-27.137 41.652-60.255 54.816-89.079 30.718-67.317 48.054-139.68 63.176-208.01 16.066-72.455 25.169-136.07 27.824-194.47 0.497-10.968-3.64-21.636-11.401-29.4z" fill="#38db85"/>
</svg>